# Blender v2.93.3 OBJ File: 'robot.blend'
# www.blender.org
mtllib robot.mtl
o Cube
v 1.441725 6.304045 -1.000000
v 1.160416 -0.304046 -0.804881
v -1.441723 6.304046 -1.000000
v -1.160418 -0.304045 -0.804881
v 1.441725 6.304045 1.000000
v 1.160416 -0.304046 0.804881
v -1.441723 6.304046 1.000000
v -1.160418 -0.304045 0.804881
v 1.441724 0.305067 -1.000000
v -1.441725 0.305068 1.000000
v -1.441725 0.305068 -1.000000
v 1.441724 0.305067 1.000000
v -1.441724 4.232264 1.000000
v 1.441725 4.232263 -1.000000
v -1.441724 4.232264 -1.000000
v 1.441725 4.232263 1.000000
v -1.441723 5.872424 1.000000
v 1.441725 5.872423 -1.000000
v -1.441723 5.872424 -1.000000
v 1.441725 5.872423 1.000000
v 0.829079 4.580748 -0.655661
v -0.829078 4.580748 -0.655661
v 0.829079 5.523939 -0.655661
v -0.829077 5.523939 -0.655661
vt 0.875000 0.500000
vt 0.625000 0.500000
vt 0.625000 0.750000
vt 0.608671 0.750000
vt 0.608671 1.000000
vt 0.625000 0.000000
vt 0.608671 0.000000
vt 0.608671 0.250000
vt 0.375000 0.500000
vt 0.125000 0.500000
vt 0.125000 0.750000
vt 0.608671 0.500000
vt 0.625000 0.250000
vt 0.398044 0.250000
vt 0.375000 0.250000
vt 0.398044 0.500000
vt 0.375000 0.750000
vt 0.398044 0.000000
vt 0.375000 0.000000
vt 0.398044 0.750000
vt 0.375000 1.000000
vt 0.546620 0.250000
vt 0.546620 0.500000
vt 0.546619 0.000000
vt 0.546620 0.750000
vt 0.398044 1.000000
vt 0.608671 0.750000
vt 0.546620 1.000000
vt 0.608671 0.500000
vt 0.546620 0.500000
vt 0.546620 0.750000
vt 0.875000 0.750000
vt 0.625000 1.000000
vn 0.0000 1.0000 0.0000
vn -1.0000 0.0000 0.0000
vn 0.0000 0.0000 1.0000
vn -0.0000 -1.0000 0.0000
vn 0.0000 0.0000 -1.0000
vn 1.0000 -0.0000 0.0000
vn 0.9079 -0.4193 0.0000
vn -0.0000 -0.3051 -0.9523
vn -0.0000 -0.3051 0.9523
vn -0.9079 -0.4193 0.0000
vn 0.4900 -0.0000 -0.8717
vn -0.0000 -0.7029 -0.7113
vn 0.0000 0.7029 -0.7113
vn -0.4900 0.0000 -0.8717
usemtl Material
s off
f 5/1/1 1/2/1 3/3/1
f 3/3/2 19/4/2 17/5/2
f 7/6/3 17/7/3 20/8/3
f 2/9/4 6/10/4 8/11/4
f 1/2/5 18/12/5 19/4/5
f 5/13/6 20/8/6 18/12/6
f 12/14/7 6/15/7 2/9/7
f 9/16/8 2/9/8 4/17/8
f 10/18/9 8/19/9 6/15/9
f 11/20/10 4/17/10 8/21/10
f 16/22/6 12/14/6 9/16/6
f 14/23/5 9/16/5 11/20/5
f 13/24/3 10/18/3 12/14/3
f 15/25/2 11/20/2 10/26/2
f 20/8/6 16/22/6 14/23/6
f 15/25/11 19/4/11 24/27/11
f 17/7/3 13/24/3 16/22/3
f 19/4/2 15/25/2 13/28/2
f 23/29/5 21/30/5 22/31/5
f 19/4/12 18/12/12 23/29/12
f 14/23/13 15/25/13 22/31/13
f 18/12/14 14/23/14 21/30/14
f 5/1/1 3/3/1 7/32/1
f 3/3/2 17/5/2 7/33/2
f 7/6/3 20/8/3 5/13/3
f 2/9/4 8/11/4 4/17/4
f 1/2/5 19/4/5 3/3/5
f 5/13/6 18/12/6 1/2/6
f 12/14/7 2/9/7 9/16/7
f 9/16/8 4/17/8 11/20/8
f 10/18/9 6/15/9 12/14/9
f 11/20/10 8/21/10 10/26/10
f 16/22/6 9/16/6 14/23/6
f 14/23/5 11/20/5 15/25/5
f 13/24/3 12/14/3 16/22/3
f 15/25/2 10/26/2 13/28/2
f 20/8/6 14/23/6 18/12/6
f 15/25/11 24/27/11 22/31/11
f 17/7/3 16/22/3 20/8/3
f 19/4/2 13/28/2 17/5/2
f 23/29/5 22/31/5 24/27/5
f 19/4/12 23/29/12 24/27/12
f 14/23/13 22/31/13 21/30/13
f 18/12/14 21/30/14 23/29/14
